<svg width="310" height="250" viewBox="0 0 310 250" fill="none" xmlns="http://www.w3.org/2000/svg">
<g clip-path="url(#clip0)">
<rect width="310" height="250" fill="white"/>
<path d="M69.4336 237.21C56.4697 233.548 46.6919 227.505 40.1001 219.083C33.5815 210.733 30.3223 199.673 30.3223 185.904V164.041C30.3223 146.243 22.5586 137.344 7.03125 137.344V121.414C22.5586 121.414 30.3223 112.552 30.3223 94.8271V71.9756C30.4687 58.5723 33.728 47.769 40.1001 39.5659C46.5454 31.2896 56.3232 25.2837 69.4336 21.5483L73.6084 34.1826C58.3008 39.0898 50.647 51.8706 50.647 72.5249V94.7173C50.647 111.343 44.5312 122.916 32.2998 129.434C44.5312 136.026 50.647 147.708 50.647 164.48V187.112C50.8667 207.254 58.5205 219.742 73.6084 224.576L69.4336 237.21Z" fill="black"/>
<path d="M223.087 224.576C237.956 219.815 245.646 207.693 246.159 188.211V164.041C246.159 147.122 252.787 135.586 266.044 129.434C252.787 123.428 246.159 111.893 246.159 94.8271V72.5249C246.159 51.8706 238.505 39.0898 223.197 34.1826L227.372 21.5483C240.336 25.2104 250.077 31.1797 256.596 39.4561C263.114 47.6592 266.41 58.5356 266.483 72.0854V95.1567C266.483 112.662 274.247 121.414 289.774 121.414V137.344C274.247 137.344 266.483 146.243 266.483 164.041V186.233C266.483 200.003 263.151 211.026 256.486 219.302C249.894 227.579 240.189 233.548 227.372 237.21L223.087 224.576Z" fill="black"/>
<path d="M97.252 213V141.906H117.32C123.505 141.906 128.974 143.273 133.727 146.008C138.479 148.742 142.141 152.632 144.713 157.678C147.317 162.723 148.635 168.518 148.668 175.061V179.602C148.668 186.307 147.366 192.183 144.762 197.229C142.19 202.274 138.495 206.148 133.678 208.85C128.893 211.551 123.31 212.935 116.93 213H97.252ZM106.627 149.621V205.334H116.49C123.717 205.334 129.332 203.088 133.336 198.596C137.372 194.104 139.391 187.707 139.391 179.406V175.256C139.391 167.183 137.486 160.917 133.678 156.457C129.902 151.965 124.531 149.686 117.564 149.621H106.627ZM162.877 213V141.906H186.119C193.834 141.906 199.628 143.501 203.502 146.691C207.408 149.882 209.361 154.602 209.361 160.852C209.361 164.172 208.417 167.118 206.529 169.689C204.641 172.229 202.07 174.198 198.814 175.598C202.656 176.672 205.683 178.723 207.896 181.75C210.143 184.745 211.266 188.326 211.266 192.492C211.266 198.872 209.199 203.885 205.064 207.531C200.93 211.177 195.087 213 187.535 213H162.877ZM172.252 179.748V205.334H187.73C192.092 205.334 195.527 204.211 198.033 201.965C200.572 199.686 201.842 196.561 201.842 192.59C201.842 184.029 197.187 179.748 187.877 179.748H172.252ZM172.252 172.229H186.412C190.514 172.229 193.785 171.203 196.227 169.152C198.701 167.102 199.938 164.318 199.938 160.803C199.938 156.896 198.798 154.064 196.52 152.307C194.241 150.516 190.774 149.621 186.119 149.621H172.252V172.229Z" fill="black"/>
<path d="M104.627 97.168V125H95.252V53.9062H121.473C129.253 53.9062 135.34 55.8919 139.734 59.8633C144.161 63.8346 146.375 69.0918 146.375 75.6348C146.375 82.5358 144.21 87.8581 139.881 91.6016C135.584 95.3125 129.415 97.168 121.375 97.168H104.627ZM104.627 89.502H121.473C126.486 89.502 130.327 88.3301 132.996 85.9863C135.665 83.61 137 80.1921 137 75.7324C137 71.5007 135.665 68.1152 132.996 65.5762C130.327 63.0371 126.665 61.7188 122.01 61.6211H104.627V89.502ZM180.018 89.5996L198.572 53.9062H209.217L184.705 98.4863V125H175.33V98.4863L150.818 53.9062H161.561L180.018 89.5996Z" fill="black"/>
</g>
<defs>
<clipPath id="clip0">
<rect width="310" height="250" fill="white"/>
</clipPath>
</defs>
</svg>
